<?xml version="1.0" encoding="UTF-8"?>
<!DOCTYPE svg PUBLIC "-//W3C//DTD SVG 1.1//EN" "http://www.w3.org/Graphics/SVG/1.1/DTD/svg11.dtd">
<svg xmlns="http://www.w3.org/2000/svg" version="1.1" width="64px" height="64px" style="shape-rendering:geometricPrecision; text-rendering:geometricPrecision; image-rendering:optimizeQuality; fill-rule:evenodd; clip-rule:evenodd" xmlns:xlink="http://www.w3.org/1999/xlink">
<g><path style="opacity:0.933" fill="#fefffe" d="M 9.5,-0.5 C 18.8333,-0.5 28.1667,-0.5 37.5,-0.5C 37.3341,4.51108 37.5007,9.51108 38,14.5C 38.8333,15.3333 39.6667,16.1667 40.5,17C 45.8229,17.4994 51.1563,17.666 56.5,17.5C 56.6666,31.8372 56.4999,46.1705 56,60.5C 54.955,61.3734 54.1217,62.3734 53.5,63.5C 38.8333,63.5 24.1667,63.5 9.5,63.5C 8.87833,62.3734 8.04499,61.3734 7,60.5C 6.33333,41.1667 6.33333,21.8333 7,2.5C 8.04499,1.62656 8.87833,0.626561 9.5,-0.5 Z M 19.5,26.5 C 27.5,26.5 35.5,26.5 43.5,26.5C 43.5,27.5 43.5,28.5 43.5,29.5C 35.4931,29.6664 27.4931,29.4997 19.5,29C 18.4019,28.2303 18.4019,27.397 19.5,26.5 Z M 19.5,33.5 C 27.5,33.5 35.5,33.5 43.5,33.5C 43.5,34.5 43.5,35.5 43.5,36.5C 35.4931,36.6664 27.4931,36.4997 19.5,36C 18.4019,35.2303 18.4019,34.397 19.5,33.5 Z M 19.5,41.5 C 27.5,41.5 35.5,41.5 43.5,41.5C 43.5,42.5 43.5,43.5 43.5,44.5C 35.4931,44.6664 27.4931,44.4997 19.5,44C 18.4019,43.2303 18.4019,42.397 19.5,41.5 Z M 19.5,48.5 C 24.8437,48.334 30.1771,48.5006 35.5,49C 35.9574,49.414 36.2907,49.914 36.5,50.5C 30.8625,51.6632 25.1959,51.8299 19.5,51C 18.4019,50.2303 18.4019,49.397 19.5,48.5 Z"/></g>
<g><path style="opacity:0.808" fill="#fefffe" d="M 40.5,0.5 C 45.9076,4.40023 50.9076,8.90023 55.5,14C 50.5111,14.4993 45.5111,14.6659 40.5,14.5C 40.5,9.83333 40.5,5.16667 40.5,0.5 Z"/></g>
</svg>
