<svg xmlns="http://www.w3.org/2000/svg" xmlns:xlink="http://www.w3.org/1999/xlink" width="500" zoomAndPan="magnify" viewBox="0 0 375 374.999991" height="500" preserveAspectRatio="xMidYMid meet" version="1.2"><g id="504f2a0f31"><path style=" stroke:none;fill-rule:nonzero;fill:#ffffff;fill-opacity:1;" d="M 41.820312 354.226562 L 94.183594 354.226562 L 94.183594 181.964844 L 41.820312 222.644531 Z M 41.820312 354.226562 "/><path style=" stroke:none;fill-rule:nonzero;fill:#ffffff;fill-opacity:1;" d="M 135.980469 149.480469 L 118.488281 163.074219 L 118.488281 354.238281 L 170.851562 354.238281 L 170.851562 194.402344 C 169.691406 193.351562 168.601562 192.210938 167.640625 190.945312 Z M 135.980469 149.480469 "/><path style=" stroke:none;fill-rule:nonzero;fill:#ffffff;fill-opacity:1;" d="M 195.148438 200.292969 L 195.148438 354.238281 L 247.511719 354.238281 L 247.511719 160.40625 L 205.070312 195.285156 C 202.15625 197.699219 198.738281 199.328125 195.148438 200.292969 Z M 195.148438 200.292969 "/><path style=" stroke:none;fill-rule:nonzero;fill:#ffffff;fill-opacity:1;" d="M 271.804688 354.226562 L 324.167969 354.226562 L 324.167969 97.402344 L 271.804688 140.429688 Z M 271.804688 354.226562 "/><path style=" stroke:none;fill-rule:nonzero;fill:#ffffff;fill-opacity:1;" d="M 362.738281 22.265625 L 354.550781 23.511719 C 346.421875 24.738281 333.113281 26.75 324.964844 27.976562 L 316.796875 29.222656 C 308.667969 30.453125 306.195312 36.722656 311.328125 43.144531 L 316.492188 49.605469 C 317.316406 50.636719 318.269531 51.832031 319.230469 53.039062 L 190.308594 159.03125 L 149.675781 105.804688 C 147.859375 103.429688 145.171875 101.878906 142.207031 101.496094 C 139.222656 101.113281 136.246094 101.9375 133.871094 103.753906 L 0 207.132812 L 13.761719 224.871094 L 138.710938 128.433594 L 179.527344 181.886719 C 181.375 184.300781 184.121094 185.871094 187.148438 186.214844 C 190.179688 186.578125 193.203125 185.675781 195.558594 183.738281 L 333.230469 70.582031 C 333.917969 71.425781 334.574219 72.25 335.164062 72.996094 L 340.316406 79.457031 C 345.433594 85.875 352.097656 84.886719 355.101562 77.207031 L 358.113281 69.523438 C 361.128906 61.855469 366.039062 49.308594 369.042969 41.664062 L 372.066406 33.957031 C 375.070312 26.308594 370.867188 21.039062 362.738281 22.265625 Z M 362.738281 22.265625 "/></g></svg>