<svg width="179" height="30" viewBox="0 0 179 30" fill="none" xmlns="http://www.w3.org/2000/svg">
<path d="M62.38 22V8H65.08V22H62.38ZM69.1692 22V11.92H71.5492L71.7492 13.56C72.0559 13 72.4892 12.5467 73.0492 12.2C73.6226 11.8533 74.3026 11.68 75.0892 11.68C75.9292 11.68 76.6359 11.8533 77.2092 12.2C77.7826 12.5467 78.2159 13.0533 78.5092 13.72C78.8159 14.3867 78.9692 15.2067 78.9692 16.18V22H76.2892V16.44C76.2892 15.64 76.1159 15.0267 75.7692 14.6C75.4359 14.1733 74.9159 13.96 74.2092 13.96C73.7559 13.96 73.3492 14.0667 72.9892 14.28C72.6426 14.4933 72.3692 14.8 72.1692 15.2C71.9692 15.5867 71.8692 16.06 71.8692 16.62V22H69.1692ZM85.5348 22L81.8348 11.92H84.6748L87.1748 19.46L89.6748 11.92H92.4948L88.8148 22H85.5348ZM99.9147 22.24C98.9014 22.24 98.0014 22.0267 97.2147 21.6C96.4414 21.16 95.8347 20.5533 95.3947 19.78C94.968 18.9933 94.7547 18.0867 94.7547 17.06C94.7547 16.0067 94.968 15.08 95.3947 14.28C95.8347 13.4667 96.4414 12.8333 97.2147 12.38C97.988 11.9133 98.888 11.68 99.9147 11.68C100.915 11.68 101.788 11.9 102.535 12.34C103.281 12.78 103.861 13.3733 104.275 14.12C104.688 14.8667 104.895 15.7133 104.895 16.66C104.895 16.7933 104.895 16.9467 104.895 17.12C104.895 17.28 104.881 17.4467 104.855 17.62H96.6747V15.98H102.175C102.135 15.3267 101.901 14.8133 101.475 14.44C101.061 14.0667 100.541 13.88 99.9147 13.88C99.4614 13.88 99.0414 13.9867 98.6547 14.2C98.268 14.4 97.9614 14.7133 97.7347 15.14C97.5214 15.5667 97.4147 16.1067 97.4147 16.76V17.34C97.4147 17.8867 97.5147 18.3667 97.7147 18.78C97.928 19.18 98.2214 19.4933 98.5947 19.72C98.968 19.9333 99.4014 20.04 99.8947 20.04C100.388 20.04 100.795 19.9333 101.115 19.72C101.448 19.5067 101.695 19.2333 101.855 18.9H104.615C104.428 19.5267 104.115 20.0933 103.675 20.6C103.235 21.1067 102.695 21.5067 102.055 21.8C101.415 22.0933 100.701 22.24 99.9147 22.24ZM112.626 22.24C111.706 22.24 110.906 22.0933 110.226 21.8C109.546 21.5067 109.013 21.1 108.626 20.58C108.239 20.06 108.019 19.4733 107.966 18.82H110.646C110.713 19.0733 110.826 19.3067 110.986 19.52C111.146 19.72 111.359 19.88 111.626 20C111.893 20.12 112.213 20.18 112.586 20.18C112.946 20.18 113.239 20.1333 113.466 20.04C113.693 19.9333 113.859 19.7933 113.966 19.62C114.086 19.4467 114.146 19.2667 114.146 19.08C114.146 18.8 114.066 18.5867 113.906 18.44C113.746 18.28 113.513 18.1533 113.206 18.06C112.899 17.9667 112.526 17.8733 112.086 17.78C111.606 17.6867 111.133 17.5733 110.666 17.44C110.213 17.2933 109.806 17.1133 109.446 16.9C109.086 16.6867 108.799 16.4133 108.586 16.08C108.373 15.7467 108.266 15.3333 108.266 14.84C108.266 14.24 108.426 13.7067 108.746 13.24C109.066 12.76 109.533 12.38 110.146 12.1C110.759 11.82 111.499 11.68 112.366 11.68C113.579 11.68 114.539 11.9533 115.246 12.5C115.953 13.0467 116.373 13.8 116.506 14.76H113.966C113.886 14.4533 113.706 14.2133 113.426 14.04C113.159 13.8533 112.799 13.76 112.346 13.76C111.866 13.76 111.499 13.8467 111.246 14.02C110.993 14.1933 110.866 14.42 110.866 14.7C110.866 14.8867 110.946 15.0533 111.106 15.2C111.279 15.3467 111.519 15.4733 111.826 15.58C112.133 15.6733 112.506 15.7667 112.946 15.86C113.719 16.02 114.399 16.2067 114.986 16.42C115.573 16.62 116.033 16.9133 116.366 17.3C116.699 17.6733 116.866 18.22 116.866 18.94C116.866 19.58 116.693 20.1533 116.346 20.66C115.999 21.1533 115.506 21.54 114.866 21.82C114.239 22.1 113.493 22.24 112.626 22.24ZM124.778 22C124.071 22 123.451 21.8933 122.918 21.68C122.398 21.4533 121.991 21.0867 121.698 20.58C121.405 20.06 121.258 19.3533 121.258 18.46V14.18H119.538V11.92H121.258L121.558 9.18H123.958V11.92H126.618V14.18H123.958V18.5C123.958 18.9533 124.058 19.2667 124.258 19.44C124.458 19.6133 124.798 19.7 125.278 19.7H126.598V22H124.778ZM134.57 22L129.37 8H131.53L135.77 19.92L140.05 8H142.17L136.97 22H134.57ZM145.464 22V12.02H147.464V22H145.464ZM146.464 10.08C146.091 10.08 145.777 9.96 145.524 9.72C145.271 9.48 145.144 9.17333 145.144 8.8C145.144 8.44 145.271 8.14667 145.524 7.92C145.777 7.68 146.091 7.56 146.464 7.56C146.837 7.56 147.151 7.68 147.404 7.92C147.657 8.14667 147.784 8.44 147.784 8.8C147.784 9.17333 147.657 9.48 147.404 9.72C147.151 9.96 146.837 10.08 146.464 10.08ZM156.304 22.24C155.331 22.24 154.471 22.0267 153.724 21.6C152.977 21.16 152.391 20.5533 151.964 19.78C151.551 18.9933 151.344 18.08 151.344 17.04C151.344 15.9867 151.551 15.0667 151.964 14.28C152.377 13.4933 152.957 12.88 153.704 12.44C154.464 12 155.337 11.78 156.324 11.78C157.311 11.78 158.157 12 158.864 12.44C159.584 12.8667 160.131 13.44 160.504 14.16C160.891 14.88 161.084 15.6733 161.084 16.54C161.084 16.6733 161.084 16.82 161.084 16.98C161.084 17.1267 161.077 17.2933 161.064 17.48H152.804V16.06H159.104C159.064 15.2467 158.784 14.6067 158.264 14.14C157.744 13.6733 157.091 13.44 156.304 13.44C155.771 13.44 155.271 13.56 154.804 13.8C154.351 14.04 153.984 14.3933 153.704 14.86C153.437 15.3267 153.304 15.9133 153.304 16.62V17.2C153.304 17.9333 153.437 18.5533 153.704 19.06C153.984 19.5533 154.351 19.9333 154.804 20.2C155.257 20.4533 155.751 20.58 156.284 20.58C156.924 20.58 157.451 20.44 157.864 20.16C158.291 19.8667 158.604 19.48 158.804 19H160.804C160.631 19.6133 160.337 20.1667 159.924 20.66C159.511 21.14 158.997 21.5267 158.384 21.82C157.784 22.1 157.091 22.24 156.304 22.24ZM166.315 22L163.395 12.02H165.375L167.575 20.46L167.135 20.44L169.575 12.02H171.815L174.275 20.44L173.815 20.46L176.015 12.02H178.035L175.095 22H173.035L170.475 13.22H170.955L168.375 22H166.315Z" fill="white"/>
<g clip-path="url(#clip0_2204_1585)">
<path d="M35.0766 21.3392C34.9777 21.0757 26.2085 3.75411 26.0766 3.49067C25.6151 2.37102 24.7909 1.41602 23.703 0.757406C20.9667 -0.823274 17.4722 0.0987893 15.8898 2.83205C14.8019 4.70911 14.8678 6.91547 15.9227 8.66081C16.0216 8.89132 24.3953 25.4885 24.5601 25.7519C24.659 26.0154 24.7909 26.2459 24.9227 26.5093C25.3843 27.629 26.2085 28.584 27.2964 29.2426C30.0326 30.8233 33.5271 29.9341 35.1096 27.2009C36.2304 25.3238 36.1315 23.0845 35.0766 21.3392Z" fill="white" fill-opacity="0.4"/>
<path d="M24.956 9.61581C25.9121 8.59495 26.5055 7.21185 26.5055 5.69704C26.5055 2.56861 23.967 0 20.8022 0C18.8571 0 17.1429 0.954995 16.1209 2.43688C15.9231 2.63447 1.71429 20.1537 1.54945 20.3842C0.593407 21.405 0 22.7881 0 24.303C0 27.4643 2.57143 30 5.7033 30C7.64835 30 9.36264 29.045 10.3846 27.5631C10.5824 27.3326 24.8242 9.84632 24.956 9.61581Z" fill="white"/>
<path d="M49.4502 9.61578C50.4062 8.59492 50.9996 7.21182 50.9996 5.69701C50.9996 2.53564 48.4282 -3.05176e-05 45.2963 -3.05176e-05C43.3513 -3.05176e-05 41.637 0.954964 40.615 2.43685C40.4172 2.63444 26.1755 20.1536 26.0106 20.3842C25.0546 21.405 24.4612 22.7881 24.4612 24.3029C24.4612 27.4643 27.0326 30 30.1645 30C32.1095 30 33.8238 29.045 34.8458 27.5631C35.0766 27.3326 49.2854 9.84629 49.4502 9.61578Z" fill="white"/>
</g>
<defs>
<clipPath id="clip0_2204_1585">
<rect width="51" height="30" fill="white"/>
</clipPath>
</defs>
</svg>
