<svg xmlns="http://www.w3.org/2000/svg" xmlns:xlink="http://www.w3.org/1999/xlink" width="500" zoomAndPan="magnify" viewBox="0 0 375 374.999991" height="500" preserveAspectRatio="xMidYMid meet" version="1.2"><defs><clipPath id="6c947940c6"><path d="M 228 228 L 372.429688 228 L 372.429688 372.429688 L 228 372.429688 Z M 228 228 "/></clipPath><clipPath id="89303faf9f"><path d="M 2.679688 2.679688 L 280 2.679688 L 280 280 L 2.679688 280 Z M 2.679688 2.679688 "/></clipPath></defs><g id="12bab01a44"><g clip-rule="nonzero" clip-path="url(#6c947940c6)"><path style=" stroke:none;fill-rule:nonzero;fill:#ffffff;fill-opacity:1;" d="M 362.15625 313.160156 L 277.355469 228.355469 C 264.722656 248.003906 248 264.71875 228.351562 277.355469 L 313.15625 362.160156 C 326.695312 375.695312 348.644531 375.695312 362.15625 362.160156 C 375.695312 348.648438 375.695312 326.695312 362.15625 313.160156 Z M 362.15625 313.160156 "/></g><g clip-rule="nonzero" clip-path="url(#89303faf9f)"><path style=" stroke:none;fill-rule:nonzero;fill:#ffffff;fill-opacity:1;" d="M 279.902344 141.289062 C 279.902344 64.746094 217.839844 2.679688 141.292969 2.679688 C 64.746094 2.679688 2.679688 64.746094 2.679688 141.289062 C 2.679688 217.835938 64.746094 279.898438 141.292969 279.898438 C 217.839844 279.898438 279.902344 217.835938 279.902344 141.289062 Z M 141.292969 245.246094 C 83.964844 245.246094 37.332031 198.617188 37.332031 141.292969 C 37.332031 83.964844 83.964844 37.332031 141.292969 37.332031 C 198.617188 37.332031 245.253906 83.964844 245.253906 141.292969 C 245.253906 198.617188 198.617188 245.246094 141.292969 245.246094 Z M 141.292969 245.246094 "/></g><path style=" stroke:none;fill-rule:nonzero;fill:#ffffff;fill-opacity:1;" d="M 60.4375 141.289062 L 83.535156 141.289062 C 83.535156 109.445312 109.445312 83.535156 141.289062 83.535156 L 141.289062 60.433594 C 96.714844 60.433594 60.4375 96.710938 60.4375 141.289062 Z M 60.4375 141.289062 "/></g></svg>