<svg xmlns="http://www.w3.org/2000/svg" xmlns:xlink="http://www.w3.org/1999/xlink" width="500" zoomAndPan="magnify" viewBox="0 0 375 374.999991" height="500" preserveAspectRatio="xMidYMid meet" version="1.2"><defs><clipPath id="784275e4ff"><path d="M 0 0 L 371 0 L 371 370.5 L 0 370.5 Z M 0 0 "/></clipPath></defs><g id="88bf1bbc02"><path style=" stroke:none;fill-rule:nonzero;fill:#ffffff;fill-opacity:1;" d="M 185.511719 240.679688 C 179.933594 240.679688 174.355469 238.554688 170.097656 234.292969 L 95.214844 159.410156 C 93.511719 157.707031 93.511719 154.941406 95.214844 153.230469 L 119.867188 128.578125 C 121.574219 126.871094 124.339844 126.871094 126.050781 128.578125 L 185.511719 188.039062 L 342.164062 31.386719 C 343.871094 29.683594 346.636719 29.683594 348.347656 31.386719 L 373 56.039062 C 374.703125 57.746094 374.703125 60.507812 373 62.21875 L 200.933594 234.292969 C 196.675781 238.550781 191.097656 240.679688 185.511719 240.679688 Z M 185.511719 240.679688 "/><g clip-rule="nonzero" clip-path="url(#784275e4ff)"><path style=" stroke:none;fill-rule:nonzero;fill:#ffffff;fill-opacity:1;" d="M 319.886719 133.101562 C 326.171875 149.289062 329.632812 166.871094 329.632812 185.25 C 329.632812 264.917969 264.816406 329.734375 185.148438 329.734375 C 105.476562 329.734375 40.664062 264.917969 40.664062 185.25 C 40.664062 105.582031 105.476562 40.765625 185.148438 40.765625 C 221.273438 40.765625 254.347656 54.097656 279.707031 76.085938 L 308.546875 47.246094 C 274.566406 16.785156 231.136719 0.113281 185.148438 0.113281 C 135.695312 0.113281 89.207031 19.371094 54.238281 54.339844 C 19.269531 89.308594 0.0117188 135.800781 0.0117188 185.25 C 0.0117188 234.699219 19.269531 281.191406 54.238281 316.160156 C 89.199219 351.128906 135.695312 370.386719 185.148438 370.386719 C 234.597656 370.386719 281.089844 351.128906 316.058594 316.160156 C 351.027344 281.191406 370.28125 234.699219 370.28125 185.25 C 370.28125 155.953125 363.523438 127.695312 350.738281 102.257812 Z M 319.886719 133.101562 "/></g><path style=" stroke:none;fill-rule:nonzero;fill:#ffffff;fill-opacity:1;" d="M 76.503906 196.707031 L 61.722656 196.707031 C 58.660156 196.707031 56.179688 194.21875 56.179688 191.164062 C 56.179688 188.101562 58.664062 185.621094 61.722656 185.621094 L 76.503906 185.621094 C 79.566406 185.621094 82.042969 188.105469 82.042969 191.164062 C 82.042969 194.226562 79.566406 196.707031 76.503906 196.707031 Z M 76.503906 196.707031 "/><path style=" stroke:none;fill-rule:nonzero;fill:#ffffff;fill-opacity:1;" d="M 190.6875 312.367188 C 187.625 312.367188 185.148438 309.886719 185.148438 306.824219 L 185.148438 292.042969 C 185.148438 288.980469 187.625 286.5 190.6875 286.5 C 193.753906 286.5 196.230469 288.980469 196.230469 292.042969 L 196.230469 306.824219 C 196.230469 309.886719 193.753906 312.367188 190.6875 312.367188 Z M 190.6875 312.367188 "/><path style=" stroke:none;fill-rule:nonzero;fill:#ffffff;fill-opacity:1;" d="M 190.6875 81.042969 C 187.625 81.042969 185.148438 78.558594 185.148438 75.503906 L 185.148438 60.722656 C 185.148438 57.660156 187.625 55.179688 190.6875 55.179688 C 193.753906 55.179688 196.230469 57.664062 196.230469 60.722656 L 196.230469 75.503906 C 196.230469 78.558594 193.753906 81.042969 190.6875 81.042969 Z M 190.6875 81.042969 "/><path style=" stroke:none;fill-rule:nonzero;fill:#ffffff;fill-opacity:1;" d="M 308.9375 197.078125 L 294.15625 197.078125 C 291.09375 197.078125 288.617188 194.59375 288.617188 191.535156 C 288.617188 188.476562 291.09375 185.992188 294.15625 185.992188 L 308.9375 185.992188 C 312 185.992188 314.480469 188.476562 314.480469 191.535156 C 314.480469 194.59375 312 197.078125 308.9375 197.078125 Z M 308.9375 197.078125 "/></g></svg>