<svg width="355" height="441" viewBox="0 0 355 441" fill="none" xmlns="http://www.w3.org/2000/svg">
<rect x="2.99599" width="348.533" height="723.353" rx="54.6176" fill="#1C1B2D"/>
<rect x="7.9893" y="4.00195" width="338.547" height="714.349" rx="49.9203" fill="#23213B"/>
<rect y="175.086" width="1.99733" height="51.0249" rx="0.998663" fill="#1C1B2D"/>
<rect y="239.117" width="1.99733" height="51.0249" rx="0.998663" fill="#1C1B2D"/>
<rect y="127.062" width="2.99599" height="26.0127" rx="1.17389" fill="#1C1B2D"/>
<rect x="351.529" y="209.102" width="2.99599" height="80.0391" rx="1.17389" fill="#1C1B2D"/>
<rect x="16.9773" y="14.0068" width="320.571" height="694.339" rx="41.1704" fill="#353447"/>
<rect x="129.826" y="22.0107" width="93.8743" height="27.0132" rx="13.5066" fill="#1C1B2D"/>
<path d="M149.38 231V217H152.08V231H149.38ZM156.169 231V220.92H158.549L158.749 222.56C159.056 222 159.489 221.547 160.049 221.2C160.623 220.853 161.303 220.68 162.089 220.68C162.929 220.68 163.636 220.853 164.209 221.2C164.783 221.547 165.216 222.053 165.509 222.72C165.816 223.387 165.969 224.207 165.969 225.18V231H163.289V225.44C163.289 224.64 163.116 224.027 162.769 223.6C162.436 223.173 161.916 222.96 161.209 222.96C160.756 222.96 160.349 223.067 159.989 223.28C159.643 223.493 159.369 223.8 159.169 224.2C158.969 224.587 158.869 225.06 158.869 225.62V231H156.169ZM172.535 231L168.835 220.92H171.675L174.175 228.46L176.675 220.92H179.495L175.815 231H172.535ZM186.915 231.24C185.901 231.24 185.001 231.027 184.215 230.6C183.441 230.16 182.835 229.553 182.395 228.78C181.968 227.993 181.755 227.087 181.755 226.06C181.755 225.007 181.968 224.08 182.395 223.28C182.835 222.467 183.441 221.833 184.215 221.38C184.988 220.913 185.888 220.68 186.915 220.68C187.915 220.68 188.788 220.9 189.535 221.34C190.281 221.78 190.861 222.373 191.275 223.12C191.688 223.867 191.895 224.713 191.895 225.66C191.895 225.793 191.895 225.947 191.895 226.12C191.895 226.28 191.881 226.447 191.855 226.62H183.675V224.98H189.175C189.135 224.327 188.901 223.813 188.475 223.44C188.061 223.067 187.541 222.88 186.915 222.88C186.461 222.88 186.041 222.987 185.655 223.2C185.268 223.4 184.961 223.713 184.735 224.14C184.521 224.567 184.415 225.107 184.415 225.76V226.34C184.415 226.887 184.515 227.367 184.715 227.78C184.928 228.18 185.221 228.493 185.595 228.72C185.968 228.933 186.401 229.04 186.895 229.04C187.388 229.04 187.795 228.933 188.115 228.72C188.448 228.507 188.695 228.233 188.855 227.9H191.615C191.428 228.527 191.115 229.093 190.675 229.6C190.235 230.107 189.695 230.507 189.055 230.8C188.415 231.093 187.701 231.24 186.915 231.24ZM199.626 231.24C198.706 231.24 197.906 231.093 197.226 230.8C196.546 230.507 196.013 230.1 195.626 229.58C195.239 229.06 195.019 228.473 194.966 227.82H197.646C197.713 228.073 197.826 228.307 197.986 228.52C198.146 228.72 198.359 228.88 198.626 229C198.893 229.12 199.213 229.18 199.586 229.18C199.946 229.18 200.239 229.133 200.466 229.04C200.693 228.933 200.859 228.793 200.966 228.62C201.086 228.447 201.146 228.267 201.146 228.08C201.146 227.8 201.066 227.587 200.906 227.44C200.746 227.28 200.513 227.153 200.206 227.06C199.899 226.967 199.526 226.873 199.086 226.78C198.606 226.687 198.133 226.573 197.666 226.44C197.213 226.293 196.806 226.113 196.446 225.9C196.086 225.687 195.799 225.413 195.586 225.08C195.373 224.747 195.266 224.333 195.266 223.84C195.266 223.24 195.426 222.707 195.746 222.24C196.066 221.76 196.533 221.38 197.146 221.1C197.759 220.82 198.499 220.68 199.366 220.68C200.579 220.68 201.539 220.953 202.246 221.5C202.953 222.047 203.373 222.8 203.506 223.76H200.966C200.886 223.453 200.706 223.213 200.426 223.04C200.159 222.853 199.799 222.76 199.346 222.76C198.866 222.76 198.499 222.847 198.246 223.02C197.993 223.193 197.866 223.42 197.866 223.7C197.866 223.887 197.946 224.053 198.106 224.2C198.279 224.347 198.519 224.473 198.826 224.58C199.133 224.673 199.506 224.767 199.946 224.86C200.719 225.02 201.399 225.207 201.986 225.42C202.573 225.62 203.033 225.913 203.366 226.3C203.699 226.673 203.866 227.22 203.866 227.94C203.866 228.58 203.693 229.153 203.346 229.66C202.999 230.153 202.506 230.54 201.866 230.82C201.239 231.1 200.493 231.24 199.626 231.24ZM211.778 231C211.071 231 210.451 230.893 209.918 230.68C209.398 230.453 208.991 230.087 208.698 229.58C208.405 229.06 208.258 228.353 208.258 227.46V223.18H206.538V220.92H208.258L208.558 218.18H210.958V220.92H213.618V223.18H210.958V227.5C210.958 227.953 211.058 228.267 211.258 228.44C211.458 228.613 211.798 228.7 212.278 228.7H213.598V231H211.778ZM221.57 231L216.37 217H218.53L222.77 228.92L227.05 217H229.17L223.97 231H221.57ZM232.464 231V221.02H234.464V231H232.464ZM233.464 219.08C233.091 219.08 232.777 218.96 232.524 218.72C232.271 218.48 232.144 218.173 232.144 217.8C232.144 217.44 232.271 217.147 232.524 216.92C232.777 216.68 233.091 216.56 233.464 216.56C233.837 216.56 234.151 216.68 234.404 216.92C234.657 217.147 234.784 217.44 234.784 217.8C234.784 218.173 234.657 218.48 234.404 218.72C234.151 218.96 233.837 219.08 233.464 219.08ZM243.304 231.24C242.331 231.24 241.471 231.027 240.724 230.6C239.977 230.16 239.391 229.553 238.964 228.78C238.551 227.993 238.344 227.08 238.344 226.04C238.344 224.987 238.551 224.067 238.964 223.28C239.377 222.493 239.957 221.88 240.704 221.44C241.464 221 242.337 220.78 243.324 220.78C244.311 220.78 245.157 221 245.864 221.44C246.584 221.867 247.131 222.44 247.504 223.16C247.891 223.88 248.084 224.673 248.084 225.54C248.084 225.673 248.084 225.82 248.084 225.98C248.084 226.127 248.077 226.293 248.064 226.48H239.804V225.06H246.104C246.064 224.247 245.784 223.607 245.264 223.14C244.744 222.673 244.091 222.44 243.304 222.44C242.771 222.44 242.271 222.56 241.804 222.8C241.351 223.04 240.984 223.393 240.704 223.86C240.437 224.327 240.304 224.913 240.304 225.62V226.2C240.304 226.933 240.437 227.553 240.704 228.06C240.984 228.553 241.351 228.933 241.804 229.2C242.257 229.453 242.751 229.58 243.284 229.58C243.924 229.58 244.451 229.44 244.864 229.16C245.291 228.867 245.604 228.48 245.804 228H247.804C247.631 228.613 247.337 229.167 246.924 229.66C246.511 230.14 245.997 230.527 245.384 230.82C244.784 231.1 244.091 231.24 243.304 231.24ZM253.315 231L250.395 221.02H252.375L254.575 229.46L254.135 229.44L256.575 221.02H258.815L261.275 229.44L260.815 229.46L263.015 221.02H265.035L262.095 231H260.035L257.475 222.22H257.955L255.375 231H253.315Z" fill="white"/>
<g clip-path="url(#clip0_16_832)">
<path d="M122.077 230.339C121.978 230.076 113.208 212.754 113.077 212.491C112.615 211.371 111.791 210.416 110.703 209.757C107.967 208.177 104.472 209.099 102.89 211.832C101.802 213.709 101.868 215.916 102.923 217.661C103.022 217.891 111.395 234.489 111.56 234.752C111.659 235.015 111.791 235.246 111.923 235.509C112.384 236.629 113.208 237.584 114.296 238.243C117.033 239.823 120.527 238.934 122.11 236.201C123.23 234.324 123.132 232.085 122.077 230.339Z" fill="white" fill-opacity="0.4"/>
<path d="M111.956 218.616C112.912 217.595 113.505 216.212 113.505 214.697C113.505 211.569 110.967 209 107.802 209C105.857 209 104.143 209.955 103.121 211.437C102.923 211.634 88.7143 229.154 88.5495 229.384C87.5934 230.405 87 231.788 87 233.303C87 236.464 89.5714 239 92.7033 239C94.6484 239 96.3626 238.045 97.3846 236.563C97.5824 236.333 111.824 218.846 111.956 218.616Z" fill="white"/>
<path d="M136.45 218.616C137.406 217.595 138 216.212 138 214.697C138 211.536 135.428 209 132.296 209C130.351 209 128.637 209.955 127.615 211.437C127.417 211.634 113.175 229.154 113.011 229.384C112.055 230.405 111.461 231.788 111.461 233.303C111.461 236.464 114.033 239 117.164 239C119.11 239 120.824 238.045 121.846 236.563C122.077 236.333 136.285 218.846 136.45 218.616Z" fill="white"/>
</g>
<defs>
<clipPath id="clip0_16_832">
<rect width="51" height="30" fill="white" transform="translate(87 209)"/>
</clipPath>
</defs>
</svg>
